<?xml version="1.0" encoding="UTF-8"?><svg id="a" xmlns="http://www.w3.org/2000/svg" viewBox="0 0 41.46 48"><circle cx="24" cy="26.18" r="1.09" fill="#fff" stroke-width="0"/><circle cx="7.64" cy="18.55" r="1.09" fill="#fff" stroke-width="0"/><path d="M38.18,30.54h-1.03l.98-18.69c1.28-.38,2.23-1.56,2.23-2.97,0-1.19-.66-2.26-1.75-2.81L26.56.6c-1.55-.8-3.63-.78-5.08-.02l-12.13,5.52c-1.06.53-1.72,1.6-1.72,2.79,0,1.41.95,2.59,2.23,2.97l.07,1.38c-1.03-.23-2.08-.17-3.07.19-1.57.57-2.81,1.86-3.33,3.45-.08.25-.25.45-.49.57l-2.45,1.23c-.41.21-.65.64-.6,1.09.05.45.38.83.82.94l1.69.42c.47.12.83.48.9.89.62,3.51,3.19,6.27,6.4,7.15v1.38c-1.8,0-3.27,1.47-3.27,3.27s1.47,3.27,3.27,3.27h10.91v9.82c0,.38.2.73.52.93.18.11.37.16.57.16.17,0,.33-.04.49-.12l4.36-2.18c.37-.18.6-.56.6-.98v-7.64h10.91c1.8,0,3.27-1.47,3.27-3.27s-1.47-3.27-3.27-3.27ZM9.82,8.88c0-.36.2-.68.47-.82l12.15-5.52c.93-.48,2.14-.51,3.17.02l12.06,5.48c.31.16.51.48.51.84,0,.49-.38.89-.86.93l-10.76-4.84c-.77-.4-1.66-.61-2.56-.61s-1.79.21-2.51.59l-10.81,4.87c-.48-.03-.86-.44-.86-.93ZM24,22.91c3.01,0,5.45-2.45,5.45-5.45s-2.45-5.45-5.45-5.45-5.45,2.45-5.45,5.45c0,.78.17,1.51.46,2.18h-3.92c-.25,0-.48-.1-.66-.28-.17-.18-.26-.42-.25-.67.1-1.88-.65-3.54-2.01-4.48l-.14-2.62,10.4-4.68c.93-.48,2.13-.51,3.17.03l10.35,4.66-1,18.95H13.04l-.06-1.14c1.92-.21,3.69-1.04,5.1-2.41,1.46-1.42,2.36-3.26,2.59-5.25.93.72,2.07,1.17,3.33,1.17ZM20.73,17.45c0-1.8,1.47-3.27,3.27-3.27s3.27,1.47,3.27,3.27-1.47,3.27-3.27,3.27-3.27-1.47-3.27-3.27ZM5.57,21.63c-.16-.93-.74-1.74-1.56-2.23h.03c.75-.39,1.33-1.06,1.59-1.86.31-.95,1.06-1.73,2-2.07,1.02-.37,2.17-.21,3.24.47.78.49,1.21,1.47,1.15,2.63-.02.37.04.73.14,1.07h-1.24c-.6,0-1.09.49-1.09,1.09s.49,1.09,1.09,1.09h7.55c-.23,1.37-.88,2.62-1.9,3.61-1.28,1.24-2.97,1.89-4.76,1.84-3.05-.09-5.67-2.46-6.23-5.64ZM25.09,44.05l-2.18,1.09v-8.06h2.18v6.97ZM38.18,34.9H9.82c-.6,0-1.09-.49-1.09-1.09s.49-1.09,1.09-1.09h1.06s.02,0,.03,0,.02,0,.03,0h27.25c.6,0,1.09.49,1.09,1.09s-.49,1.09-1.09,1.09Z" fill="#fff" stroke-width="0"/></svg>