<?xml version="1.0" encoding="UTF-8"?><svg id="a" xmlns="http://www.w3.org/2000/svg" xmlns:xlink="http://www.w3.org/1999/xlink" viewBox="0 0 181.42 179.05"><defs><linearGradient id="b" x1="0" y1="89.52" x2="181.42" y2="89.52" gradientUnits="userSpaceOnUse"><stop offset="0" stop-color="#2ed2c0"/><stop offset=".43" stop-color="#4eb6d6"/><stop offset="1" stop-color="#818cf8"/></linearGradient></defs><path d="M169.9,34.97c-4.76-5.44-6.63-7.65-10.15-13.7-6.55-11.25-18.16-18.72-31.12-20.75-25.77-4.01-48.6,15.81-51.03,41.11-1.19,12.49,3.29,27.63-8.16,36.56-8.29,6.46-30.45,6.06-35.35,14.32-6.95,11.7,18.08,22.78,26.05,24.86,9.71,1.55,21.42-2.01,30.07-1.72,4.62.15,5.31,6.71,2.05,9.45-11.21,9.42-29.51,10.09-42.78,6.37-14.89-4.16-24.09-20.03-39.03-20.36-23.79-.52-.59,23.4,7.05,30.6,12.64,11.87,28.12,18.38,45.36,19.79l-.02.02c-4.9,3.09-12.96,10.88-4.4,16.13,7.32,4.48,12.94-6.73,19.29-7.35,8.11-.79,17.69,12.34,25.55,7.79,11.53-6.65-3.14-12.57-3.36-16.28-.15-2.5,24.34-12.79,27.46-15.26,12-9.52,19.47-22.85,26.27-36.29,7.32-14.47,8.58-29.11,10.96-44.97,1.93-12.91,6.5-13.76,16.82-20.6-5.47-4.83-6.82-5.57-11.52-9.73ZM144.34,44.49c-10.26,0-9.97-15.85.62-14.84,9.47.92,9.08,14.84-.62,14.84Z" fill="url(#b)" stroke-width="0"/></svg>