<?xml version="1.0" encoding="UTF-8"?>
<svg id="a" xmlns="http://www.w3.org/2000/svg" version="1.1" viewBox="0 0 41.5 48">
  <defs>
    <style>
      .cls-1 {
        fill: #000;
      }

      .cls-1, .cls-2, .cls-3 {
        stroke-width: 0px;
      }

      .cls-2 {
        fill: #006fee;
      }

      .cls-3 {
        fill: #fff;
      }
    </style>
  </defs>
  <path class="cls-2" d="M38.2,30.5h-1l1-18.7c1.3-.4,2.2-1.6,2.2-3s-.7-2.3-1.8-2.8L26.6.6c-1.5-.8-3.6-.8-5.1,0l-12.1,5.5c-1.1.5-1.7,1.6-1.7,2.8s.9,2.6,2.2,3v1.4c-1-.2-2-.2-3,.2-1.6.6-2.8,1.9-3.3,3.4,0,.2-.2.5-.5.6l-2.5,1.2c-.4.2-.6.6-.6,1.1s.4.8.8.9l1.7.4c.5.1.8.5.9.9.6,3.5,3.2,6.3,6.4,7.1v1.4c-1.8,0-3.3,1.5-3.3,3.3s1.5,3.3,3.3,3.3h10.9v9.8c0,.4.2.7.5.9.2,0,.4.2.6.2h.5l4.4-2.2c.4-.2.6-.6.6-1v-7.6h10.9c1.8,0,3.3-1.5,3.3-3.3s-1.5-3.3-3.3-3.3h0ZM24,22.9c3,0,5.5-2.5,5.5-5.5s-2.5-5.4-5.5-5.4-5.5,2.4-5.5,5.4.2,1.5.5,2.2h-3.9c-.2,0-.5-.1-.7-.3-.2-.2-.3-.4-.2-.7.1-1.9-.6-3.5-2-4.5v-2.6c-.1,0,10.3-4.7,10.3-4.7.9-.5,2.1-.5,3.2,0l10.4,4.7-1,18.9H13v-1.1c1.9-.2,3.6-1,5-2.4,1.5-1.4,2.4-3.3,2.6-5.2.9.7,2.1,1.2,3.3,1.2h.1M38.2,34.9h0"/>
  <circle class="cls-1" cx="8.1" cy="18.4" r="1.1"/>
  <path class="cls-3" d="M26.2,36.8"/>
</svg>